<svg width="1459" height="1170" viewBox="0 0 1459 1170" fill="none" xmlns="http://www.w3.org/2000/svg">
<path d="M666.747 714.629L668.637 971.134L649.658 980.88C637.18 988.441 630.195 992.981 585.681 1013.81C541.166 1034.64 474.569 1067.77 432.052 1075.76C389.536 1083.75 376.895 1081.08 368.094 1081.49C359.293 1081.89 295.695 1065.66 285.488 1028.5C272.757 982.408 285.385 915.179 356.98 803.563C378.268 770.403 417.267 719.325 439.337 689.909C470.646 648.492 504.086 606.094 550.217 549.237C584.833 506.644 646.257 431.721 657.113 419.033L667.382 407L666.747 714.629Z" fill="white"/>
<path d="M792.263 714.629L790.373 971.134L809.352 980.88C821.83 988.441 828.815 992.981 873.329 1013.81C917.843 1034.64 984.441 1067.77 1026.96 1075.76C1069.47 1083.75 1082.12 1081.08 1090.92 1081.49C1099.72 1081.89 1163.31 1065.66 1173.52 1028.5C1186.25 982.408 1173.62 915.179 1102.03 803.563C1080.74 770.403 1041.74 719.325 1019.67 689.909C988.364 648.492 954.924 606.094 908.793 549.237C874.177 506.644 812.753 431.721 801.897 419.033L791.627 407L792.263 714.629Z" fill="white"/>
<path d="M124.766 76.6125C101.966 83.0125 88.7658 95.5459 80.4991 118.613C75.0324 133.413 73.1658 146.346 73.2991 167.946C73.4324 234.079 98.6324 308.613 146.899 385.946C164.099 413.546 199.832 465.546 270.366 565.279C283.566 583.946 299.966 607.413 307.032 617.279C333.432 654.879 361.966 694.479 363.032 695.279C363.699 695.679 371.966 687.146 381.299 676.346C432.766 616.879 513.566 527.546 621.566 410.613C642.899 387.546 659.966 368.213 659.566 367.546C658.499 365.679 578.632 306.346 546.366 283.279C446.366 211.813 360.632 158.213 291.166 123.413C242.766 99.2792 209.966 86.2125 179.299 79.1459C161.166 74.8792 135.166 73.6792 124.766 76.6125Z" fill="white"/>
<path d="M1334.24 76.6125C1357.04 83.0125 1370.24 95.5459 1378.51 118.613C1383.98 133.413 1385.84 146.346 1385.71 167.946C1385.58 234.079 1360.38 308.613 1312.11 385.946C1294.91 413.546 1259.18 465.546 1188.64 565.279C1175.44 583.946 1159.04 607.413 1151.98 617.279C1125.58 654.879 1097.04 694.479 1095.98 695.279C1095.31 695.679 1087.04 687.146 1077.71 676.346C1026.24 616.879 945.444 527.546 837.444 410.613C816.111 387.546 799.044 368.213 799.444 367.546C800.511 365.679 880.377 306.346 912.644 283.279C1012.64 211.813 1098.38 158.213 1167.84 123.413C1216.24 99.2792 1249.04 86.2125 1279.71 79.1459C1297.84 74.8792 1323.84 73.6792 1334.24 76.6125Z" fill="white"/>
<path d="M725.832 218.546C719.166 233.613 711.832 324.279 708.366 435.613C706.499 496.279 706.499 711.479 708.366 777.613C711.032 868.546 717.166 966.813 722.499 1006.95C725.832 1031.35 729.166 1039.35 733.566 1033.88C739.299 1026.95 745.966 955.479 751.432 838.946C753.832 788.946 753.832 450.546 751.432 396.279C747.299 301.479 740.099 228.146 734.099 217.746C730.632 211.879 728.766 212.013 725.832 218.546Z" fill="white"/>
</svg>
