<svg xmlns="http://www.w3.org/2000/svg" xmlns:xlink="http://www.w3.org/1999/xlink" style="display:none">
  <symbol id="icon-escape" viewBox="0 0 32 32">
    <path stroke="currentColor" stroke-linecap="round" stroke-linejoin="round" stroke-width="2" d="M8.5 23.5l15-15M23.5 23.5l-15-15"/>
  </symbol>

  <symbol id="icon-github" viewBox="0 0 24 24">
    <path
      d="M12 .53a11.76 11.76 0 0 0-3.72 22.917
         c.589.103.81-.25.81-.558
         0-.28-.015-1.206-.015-2.19
         -2.955.543-3.72-.72-3.955-1.382
         a4.3 4.3 0 0 0-1.205-1.661
         c-.412-.22-1-.765-.015-.78
         a2.35 2.35 0 0 1 1.808 1.206
         a2.513 2.513 0 0 0 3.425.97
         a2.48 2.48 0 0 1 .75-1.573
         c-2.616-.294-5.35-1.308-5.35-5.806
         a4.58 4.58 0 0 1 1.205-3.16
         a4.23 4.23 0 0 1 .117-3.117
         S6.84 5.087 9.09 6.6
         a11.1 11.1 0 0 1 5.88 0
         c2.25-1.529 3.234-1.205 3.234-1.205
         .435.986.478 2.1.118 3.116
         a4.55 4.55 0 0 1 1.205 3.16
         c0 4.514-2.749 5.513-5.365 5.807
         a2.8 2.8 0 0 1 .794 2.176
         c0 1.573-.015 2.837-.015 3.234
         0 .308.22.676.808.558
         A11.766 11.766 0 0 0 12 .53"
      fill="currentColor"
    />
  </symbol>

  <symbol id="icon-grid" viewBox="0 0 24 24">
    <path
      d="M3 3h8v10H3V3zm2 2v6h4V5H5zm8-2h8v6h-8V3zm2 2v2h4V5h-4zm-2 6h8v10h-8V11zm2 2v6h4v-6h-4zM3 15h8v6H3v-6zm2 2v2h4v-2H5z"
      fill="currentColor"
    />
  </symbol>

  <symbol id="icon-panel-left" viewBox="0 0 32 32">
    <path d="M28 4H4a2 2 0 0 0-2 2v20a2 2 0 0 0 2 2h24a2 2 0 0 0 2-2V6a2 2 0 0 0-2-2Zm0 22H12V6h16Z" />
    <path d="M0 0h32v32H0z" fill="none" />
  </symbol>

  <symbol id="icon-panel-right" viewBox="0 0 21 21">
    <g
      fill="none"
      fill-rule="evenodd"
      stroke="currentColor"
      stroke-linecap="round"
      stroke-linejoin="round"
      transform="translate(3 3)"
    >
      <path d="m2.5.5h10c1.1045695 0 2 .8954305 2 2v10c0 1.1045695-.8954305 2-2 2h-10c-1.1045695 0-2-.8954305-2-2v-10c0-1.1045695.8954305-2 2-2z" />
      <path d="m12.5 11.5v-8" />
    </g>
  </symbol>

  <symbol id="icon-plus" viewBox="0 0 24 24">
    <path d="M0 0h24v24H0z" fill="none" />
    <path
      d="M12 5l0 14M5 12l14 0"
      fill="none"
      stroke="currentColor"
      stroke-width="2"
      stroke-linecap="round"
      stroke-linejoin="round"
    />
  </symbol>

  <symbol id="icon-arrow-up-left" viewBox="0 0 16 16">
    <path
      d="M5 1H4L0 5L4 9H5V6H11C12.6569 6 14 7.34315 14 9C14 10.6569 12.6569 12 11 12H4V14H11C13.7614 14 16 11.7614 16 9C16 6.23858 13.7614 4 11 4H5V1Z"
      fill="currentColor"
    />
  </symbol>

  <symbol id="icon-alert-circle" viewBox="0 0 24 24">
    <path
      d="M10.8809 16.15C10.8809 16.0021 10.9101 15.8556 10.967 15.7191C11.024 15.5825 11.1073 15.4586 11.2124 15.3545C11.3175 15.2504 11.4422 15.1681 11.5792 15.1124C11.7163 15.0567 11.8629 15.0287 12.0109 15.03C12.2291 15.034 12.4413 15.1021 12.621 15.226C12.8006 15.3499 12.9399 15.5241 13.0211 15.7266C13.1024 15.9292 13.122 16.1512 13.0778 16.3649C13.0335 16.5786 12.9272 16.7745 12.7722 16.9282C12.6172 17.0818 12.4204 17.1863 12.2063 17.2287C11.9922 17.2711 11.7703 17.2494 11.5685 17.1663C11.3666 17.0833 11.1938 16.9426 11.0715 16.7618C10.9492 16.5811 10.8829 16.3683 10.8809 16.15ZM11.2408 13.42L11.1008 8.20001C11.0875 8.07453 11.1008 7.94766 11.1398 7.82764C11.1787 7.70761 11.2424 7.5971 11.3268 7.5033C11.4112 7.40949 11.5144 7.33449 11.6296 7.28314C11.7449 7.2318 11.8697 7.20526 11.9958 7.20526C12.122 7.20526 12.2468 7.2318 12.3621 7.28314C12.4773 7.33449 12.5805 7.40949 12.6649 7.5033C12.7493 7.5971 12.813 7.70761 12.8519 7.82764C12.8909 7.94766 12.9042 8.07453 12.8909 8.20001L12.7609 13.42C12.7609 13.6215 12.6809 13.8149 12.5383 13.9574C12.3958 14.0999 12.2024 14.18 12.0009 14.18C11.7993 14.18 11.606 14.0999 11.4635 13.9574C11.321 13.8149 11.2408 13.6215 11.2408 13.42Z"
      fill="currentColor"
    />
    <path
      d="M12 21.5C17.1086 21.5 21.25 17.3586 21.25 12.25C21.25 7.14137 17.1086 3 12 3C6.89137 3 2.75 7.14137 2.75 12.25C2.75 17.3586 6.89137 21.5 12 21.5Z"
      fill="none"
      stroke="currentColor"
      stroke-width="1.5"
      stroke-linecap="round"
      stroke-linejoin="round"
    />
  </symbol>

  <symbol id="icon-eye-rounded" viewBox="0 0 24 24">
    <path
      d="M1 12s4-8 11-8 11 8 11 8-4 8-11 8-11-8-11-8z"
      fill="none"
      stroke="currentColor"
      stroke-width="2"
    />
    <circle
      cx="12"
      cy="12"
      r="3"
      fill="none"
      stroke="currentColor"
      stroke-width="2"
    />
  </symbol>

  <symbol id="icon-home" viewBox="0 0 24 24">
    <path
      d="M3 10.5L12 3l9 7.5V21a1 1 0 0 1-1 1h-5v-6H9v6H4a1 1 0 0 1-1-1V10.5z"
      fill="currentColor"
      stroke="currentColor"
      stroke-width="1.5"
    />
  </symbol>

  <symbol id="icon-charts" viewBox="0 0 24 24">
    <rect
      x="3"
      y="13"
      width="6"
      height="8"
      rx="1.5"
      fill="currentColor"
      stroke="currentColor"
      stroke-width="1.5"
    />
    <rect
      x="9"
      y="3"
      width="6"
      height="18"
      rx="1.5"
      fill="currentColor"
      stroke="currentColor"
      stroke-width="1.5"
    />
    <rect
      x="15"
      y="9"
      width="6"
      height="12"
      rx="1.5"
      fill="currentColor"
      stroke="currentColor"
      stroke-width="1.5"
    />
  </symbol>

  <symbol id="icon-db" viewBox="0 0 24 24">
    <ellipse
      cx="12"
      cy="6"
      rx="9"
      ry="4"
      fill="currentColor"
      stroke="currentColor"
      stroke-width="1.5"
    />
    <path
      d="M3 6v12c0 2.21 4.03 4 9 4s9-1.79 9-4V6"
      fill="none"
      stroke="currentColor"
      stroke-width="1.5"
    />
  </symbol>

  <symbol id="icon-user" viewBox="0 0 24 24">
    <circle
      cx="12"
      cy="8"
      r="4"
      fill="currentColor"
      stroke="currentColor"
      stroke-width="1.5"
    />
    <path
      d="M4 20c0-3.31 3.58-6 8-6s8 2.69 8 6"
      fill="none"
      stroke="currentColor"
      stroke-width="1.5"
    />
  </symbol>

  <symbol id="icon-camera" viewBox="0 0 24 24">
    <rect
      x="3"
      y="6"
      width="18"
      height="12"
      rx="2"
      fill="currentColor"
      stroke="currentColor"
      stroke-width="1.5"
    />
    <circle
      cx="8"
      cy="12"
      r="2"
      fill="currentColor"
      stroke="currentColor"
      stroke-width="1.2"
    />
    <rect
      x="13"
      y="10"
      width="5"
      height="2"
      rx="1"
      fill="currentColor"
      stroke="currentColor"
      stroke-width="1.2"
    />
  </symbol>

  <symbol id="icon-bell" viewBox="0 0 16 16">
    <path d="M3 5C3 2.23858 5.23858 0 8 0C10.7614 0 13 2.23858 13 5V8L15 10V12H1V10L3 8V5Z" />
    <path d="M7.99999 16C6.69378 16 5.58254 15.1652 5.1707 14H10.8293C10.4175 15.1652 9.30621 16 7.99999 16Z" />
  </symbol>

  <symbol id="icon-terminal" viewBox="0 0 24 24">
    <circle
      cx="12"
      cy="12"
      r="3"
      fill="currentColor"
      stroke="currentColor"
      stroke-width="1.5"
    />
    <path
      d="M19.4 15a1.65 1.65 0 0 0 .33 1.82l.06.06a2 2 0 0 1-2.83 2.83l-.06-.06a1.65 1.65 0 0 0-1.82-.33 1.65 1.65 0 0 0-1 1.51V21a2 2 0 0 1-4 0v-.09a1.65 1.65 0 0 0-1-1.51 1.65 1.65 0 0 0-.33-1.82l-.06-.06a2 2 0 0 1-2.83-2.83l.06-.06a1.65 1.65 0 0 0 .33-1.82 1.65 1.65 0 0 0-1.51-1H3a2 2 0 0 1 0-4h.09a1.65 1.65 0 0 0 1.51-1 1.65 1.65 0 0 0-.33-1.82l-.06-.06a2 2 0 0 1 2.83-2.83l.06.06a1.65 1.65 0 0 0 1.82.33h.09a1.65 1.65 0 0 0 1-1.51V3a2 2 0 0 1 4 0v.09a1.65 1.65 0 0 0 1 1.51h.09a1.65 1.65 0 0 0 1.82-.33l.06-.06a2 2 0 0 1 2.83 2.83l-.06.06a1.65 1.65 0 0 0-.33 1.82v.09a1.65 1.65 0 0 0 1.51 1H21a2 2 0 0 1 0 4h-.09a1.65 1.65 0 0 0-1.51 1z"
      fill="currentColor"
      stroke="currentColor"
      stroke-width="1.2"
    />
  </symbol>

  <symbol id="icon-download" viewBox="0 0 24 24">
    <polyline
      points="22.5 15.79 22.5 22.48 1.5 22.48 1.5 15.79"
      fill="none"
      stroke="currentColor"
      stroke-width="1.91"
      stroke-miterlimit="10"
    />
    <line
      x1="12"
      y1="16.75"
      x2="12"
      y2="0.52"
      fill="none"
      stroke="currentColor"
      stroke-width="1.91"
      stroke-miterlimit="10"
    />
    <polyline
      points="18.68 11.02 12 17.7 5.32 11.02"
      fill="none"
      stroke="currentColor"
      stroke-width="1.91"
      stroke-miterlimit="10"
    />
  </symbol>

  <symbol id="icon-whatsapp" viewBox="0 0 20 20">
    <path
      d="M15.821 14.12124C15.58 14.80344 14.622 15.36761 13.858 15.53266C13.335 15.64369 12.653 15.73172 10.355 14.77943C7.774 13.71011 4.19 9.90097 4.19 7.36621C4.19 6.07582 4.934 4.57337 6.235 4.57337C6.861 4.57337 6.999 4.58538 7.205 5.07952C7.446 5.6617 8.034 7.09613 8.104 7.24317C8.393 7.84635 7.81 8.19946 7.387 8.72462C7.252 8.88266 7.099 9.05372 7.27 9.3478C7.44 9.63589 8.028 10.59418 8.892 11.36341C10.008 12.35771 10.913 12.6748 11.237 12.80984C11.478 12.90987 11.766 12.88687 11.942 12.69881C12.165 12.45774 12.442 12.05762 12.724 11.6635C12.923 11.38141 13.176 11.3464 13.441 11.44643C13.62 11.50845 15.895 12.56477 15.991 12.73382C16.062 12.85686 16.062 13.43903 15.821 14.12124ZM10.002 0C4.484 0 0 4.48535 0 10C0 12.18666 0.705 14.21526 1.904 15.86076L0.658 19.57687L4.501 18.3485C6.082 19.39482 7.969 20 10.002 20C15.515 20 20 15.51465 20 10C20 4.48535 15.515 0 10.002 0Z"
      fill="currentColor"
    />
  </symbol>

  <symbol id="icon-arrow-prev-small" viewBox="0 0 24 24">
    <path
      d="M14.2893 5.70708C13.8988 5.31655 13.2657 5.31655 12.8751 5.70708L7.98768 10.5993C7.20729 11.3805 7.2076 12.6463 7.98837 13.427L12.8787 18.3174C13.2693 18.7079 13.9024 18.7079 14.293 18.3174C14.6835 17.9269 14.6835 17.2937 14.293 16.9032L10.1073 12.7175C9.71678 12.327 9.71678 11.6939 10.1073 11.3033L14.2893 7.12129C14.6799 6.73077 14.6799 6.0976 14.2893 5.70708Z"
      fill="currentColor"
    />
  </symbol>

  <symbol id="icon-dot-menu" viewBox="0 0 32 32">
    <path
      d="M16 13c-1.654 0-3 1.346-3 3s1.346 3 3 3s3-1.346 3-3s-1.346-3-3-3z"
      fill="currentColor"
    />
    <path
      d="M6 13c-1.654 0-3 1.346-3 3s1.346 3 3 3s3-1.346 3-3s-1.346-3-3-3z"
      fill="currentColor"
    />
    <path
      d="M26 13c-1.654 0-3 1.346-3 3s1.346 3 3 3s3-1.346 3-3s-1.346-3-3-3z"
      fill="currentColor"
    />
  </symbol>
  
  <symbol id="icon-edit-user" viewBox="0 0 24 24">
    <path
      d="M20.71 14.69l-1.4-1.4a1 1 0 0 0-1.4 0L13 18.2V21h2.8l4.91-4.91a1 1 0 0 0 0-1.4z"
      fill="none"
      stroke="currentColor"
      stroke-width="2"
      stroke-linecap="round"
      stroke-linejoin="round"
    />
    <path
      d="M9 21c-4.45-.37-6-2-6-2V18a5 5 0 0 1 5-5h3"
      fill="none"
      stroke="currentColor"
      stroke-width="2"
      stroke-linecap="round"
      stroke-linejoin="round"
    />
    <circle
      cx="11"
      cy="8"
      r="5"
      fill="none"
      stroke="currentColor"
      stroke-width="2"
      stroke-linecap="round"
      stroke-linejoin="round"
    />
  </symbol>

  <symbol id="icon-user-cog" viewBox="0 0 640 512">
    <path
      d="M610.5 373.3c2.6-14.1 2.6-28.5 0-42.6l25.8-14.9c3-1.7 4.3-5.2 3.3-8.5-6.7-21.6-18.2-41.2-33.2-57.4-2.3-2.5-6-3.1-9-1.4l-25.8 14.9c-10.9-9.3-23.4-16.5-36.9-21.3v-29.8c0-3.4-2.4-6.4-5.7-7.1-22.3-5-45-4.8-66.2 0-3.3.7-5.7 3.7-5.7 7.1v29.8c-13.5 4.8-26 12-36.9 21.3l-25.8-14.9c-2.9-1.7-6.7-1.1-9 1.4-15 16.2-26.5 35.8-33.2 57.4-1 3.3.4 6.8 3.3 8.5l25.8 14.9c-2.6 14.1-2.6 28.5 0 42.6l-25.8 14.9c-3 1.7-4.3 5.2-3.3 8.5 6.7 21.6 18.2 41.1 33.2 57.4 2.3 2.5 6 3.1 9 1.4l25.8-14.9c10.9 9.3 23.4 16.5 36.9 21.3v29.8c0 3.4 2.4 6.4 5.7 7.1 22.3 5 45 4.8 66.2 0 3.3-.7 5.7-3.7 5.7-7.1v-29.8c13.5-4.8 26-12 36.9-21.3l25.8 14.9c2.9 1.7 6.7 1.1 9-1.4 15-16.2 26.5-35.8 33.2-57.4 1-3.3-.4-6.8-3.3-8.5l-25.8-14.9zM496 400.5c-26.8 0-48.5-21.8-48.5-48.5s21.8-48.5 48.5-48.5 48.5 21.8 48.5 48.5-21.7 48.5-48.5 48.5zM224 256c70.7 0 128-57.3 128-128S294.7 0 224 0 96 57.3 96 128s57.3 128 128 128zm201.2 226.5c-2.3-1.2-4.6-2.6-6.8-3.9l-7.9 4.6c-6 3.4-12.8 5.3-19.6 5.3-10.9 0-21.4-4.6-28.9-12.6-18.3-19.8-32.3-43.9-40.2-69.6-5.5-17.7 1.9-36.4 17.9-45.7l7.9-4.6c-.1-2.6-.1-5.2 0-7.8l-7.9-4.6c-16-9.2-23.4-28-17.9-45.7.9-2.9 2.2-5.8 3.2-8.7-3.8-.3-7.5-1.2-11.4-1.2h-16.7c-22.2 10.2-46.9 16-72.9 16s-50.6-5.8-72.9-16h-16.7C60.2 288 0 348.2 0 422.4V464c0 26.5 21.5 48 48 48h352c10.1 0 19.5-3.2 27.2-8.5-1.2-3.8-2-7.7-2-11.8v-9.2z"
      fill="currentColor"
    />
  </symbol>

  <symbol id="icon-check-circle" viewBox="0 0 24 24">
    <path
      d="M12 21a9 9 0 1 1 0-18 9 9 0 0 1 0 18ZM8 11.5l3 3 5-5"
      fill="none"
      stroke="currentColor"
      stroke-width="1.5"
      stroke-linecap="round"
      stroke-linejoin="round"
    />
  </symbol>

  <symbol id="icon-eye-off" viewBox="0 0 24 24">
    <path
      d="M9.88 9.88a3 3 0 1 0 4.24 4.24"
      fill="none"
      stroke="currentColor"
      stroke-width="2"
      stroke-linecap="round"
      stroke-linejoin="round"
    />
    <path
      d="M10.73 5.08A10.43 10.43 0 0 1 12 5c7 0 10 7 10 7a13.16 13.16 0 0 1-1.67 2.68"
      fill="none"
      stroke="currentColor"
      stroke-width="2"
      stroke-linecap="round"
      stroke-linejoin="round"
    />
    <path
      d="M6.61 6.61A13.526 13.526 0 0 0 2 12s3 7 10 7a9.74 9.74 0 0 0 5.39-1.61"
      fill="none"
      stroke="currentColor"
      stroke-width="2"
      stroke-linecap="round"
      stroke-linejoin="round"
    />
    <line
      x1="2"
      x2="22"
      y1="2"
      y2="22"
      stroke="currentColor"
      stroke-width="2"
      stroke-linecap="round"
      stroke-linejoin="round"
    />
  </symbol>

  <symbol id="icon-padlock" viewBox="-5 -2 24 24">
    <path
      d="M12 10a2 2 0 0 1 2 2v6a2 2 0 0 1-2 2H2a2 2 0 0 1-2-2v-6a2 2 0 0 1 2-2V5a5 5 0 1 1 10 0v5zm-5 7a2 2 0 1 0 0-4 2 2 0 0 0 0 4zm3-7V5a3 3 0 1 0-6 0v5h6z"
      fill="currentColor"
    />
  </symbol>
</svg>