<svg width="2024" height="288" viewBox="0 0 2024 288" fill="none" xmlns="http://www.w3.org/2000/svg">
<path d="M221.505 86.2031H174.843C173.991 80.1662 172.251 74.804 169.623 70.1165C166.995 65.3579 163.622 61.3097 159.502 57.9716C155.383 54.6335 150.625 52.0767 145.227 50.3011C139.9 48.5256 134.112 47.6378 127.862 47.6378C116.569 47.6378 106.733 50.4432 98.3519 56.054C89.9712 61.5937 83.4727 69.6903 78.8562 80.3438C74.2397 90.9261 71.9315 103.781 71.9315 118.909C71.9315 134.463 74.2397 147.531 78.8562 158.114C83.5437 168.696 90.0778 176.686 98.4585 182.084C106.839 187.482 116.534 190.18 127.542 190.18C133.721 190.18 139.439 189.364 144.694 187.73C150.021 186.097 154.744 183.717 158.863 180.592C162.983 177.396 166.392 173.526 169.091 168.98C171.86 164.435 173.778 159.25 174.843 153.426L221.505 153.639C220.298 163.653 217.279 173.312 212.45 182.616C207.691 191.849 201.264 200.124 193.167 207.439C185.142 214.683 175.554 220.436 164.403 224.697C153.324 228.888 140.788 230.983 126.797 230.983C107.336 230.983 89.9357 226.58 74.5948 217.773C59.3249 208.966 47.2511 196.217 38.3732 179.527C29.5664 162.837 25.163 142.631 25.163 118.909C25.163 95.1165 29.6374 74.875 38.5863 58.1847C47.5352 41.4943 59.68 28.7812 75.021 20.0455C90.3619 11.2386 107.62 6.83522 126.797 6.83522C139.439 6.83522 151.157 8.61079 161.953 12.1619C172.819 15.7131 182.443 20.8977 190.824 27.7159C199.204 34.4631 206.022 42.7372 211.278 52.5383C216.605 62.3395 220.014 73.5611 221.505 86.2031ZM446.081 118.909C446.081 142.702 441.571 162.943 432.551 179.634C423.603 196.324 411.387 209.072 395.904 217.879C380.492 226.615 363.162 230.983 343.915 230.983C324.526 230.983 307.125 226.58 291.713 217.773C276.301 208.966 264.121 196.217 255.172 179.527C246.223 162.837 241.749 142.631 241.749 118.909C241.749 95.1165 246.223 74.875 255.172 58.1847C264.121 41.4943 276.301 28.7812 291.713 20.0455C307.125 11.2386 324.526 6.83522 343.915 6.83522C363.162 6.83522 380.492 11.2386 395.904 20.0455C411.387 28.7812 423.603 41.4943 432.551 58.1847C441.571 74.875 446.081 95.1165 446.081 118.909ZM399.313 118.909C399.313 103.497 397.005 90.5 392.388 79.9176C387.843 69.3352 381.415 61.3097 373.105 55.8409C364.796 50.3722 355.066 47.6378 343.915 47.6378C332.765 47.6378 323.034 50.3722 314.725 55.8409C306.415 61.3097 299.952 69.3352 295.336 79.9176C290.79 90.5 288.517 103.497 288.517 118.909C288.517 134.321 290.79 147.318 295.336 157.901C299.952 168.483 306.415 176.509 314.725 181.977C323.034 187.446 332.765 190.18 343.915 190.18C355.066 190.18 364.796 187.446 373.105 181.977C381.415 176.509 387.843 168.483 392.388 157.901C397.005 147.318 399.313 134.321 399.313 118.909ZM471.252 228V9.81818H517.381V189.967H610.918V228H471.252ZM750.826 72.5668C749.974 63.973 746.316 57.2969 739.853 52.5383C733.39 47.7798 724.619 45.4006 713.539 45.4006C706.011 45.4006 699.654 46.4659 694.47 48.5966C689.285 50.6562 685.308 53.5327 682.538 57.2258C679.839 60.919 678.49 65.1094 678.49 69.7969C678.348 73.7031 679.164 77.1122 680.94 80.0241C682.787 82.9361 685.308 85.4574 688.504 87.5881C691.7 89.6477 695.393 91.4588 699.583 93.0213C703.774 94.5128 708.248 95.7912 713.007 96.8565L732.609 101.544C742.126 103.675 750.862 106.516 758.816 110.067C766.771 113.618 773.66 117.986 779.484 123.17C785.308 128.355 789.818 134.463 793.014 141.494C796.281 148.526 797.95 156.587 798.021 165.678C797.95 179.03 794.541 190.607 787.794 200.408C781.118 210.138 771.458 217.702 758.816 223.099C746.245 228.426 731.082 231.089 713.326 231.089C695.713 231.089 680.372 228.391 667.304 222.993C654.306 217.595 644.15 209.605 636.835 199.023C629.591 188.369 625.791 175.195 625.436 159.499H670.074C670.571 166.814 672.666 172.922 676.359 177.822C680.123 182.652 685.13 186.31 691.38 188.795C697.701 191.21 704.839 192.418 712.794 192.418C720.606 192.418 727.389 191.281 733.142 189.009C738.966 186.736 743.475 183.575 746.672 179.527C749.868 175.479 751.466 170.827 751.466 165.571C751.466 160.67 750.01 156.551 747.098 153.213C744.257 149.875 740.066 147.034 734.527 144.69C729.058 142.347 722.346 140.216 714.392 138.298L690.635 132.332C672.24 127.858 657.716 120.862 647.062 111.345C636.409 101.828 631.118 89.0085 631.189 72.8864C631.118 59.6761 634.633 48.1349 641.735 38.2628C648.909 28.3906 658.745 20.6847 671.245 15.1449C683.745 9.60511 697.95 6.83522 713.859 6.83522C730.052 6.83522 744.186 9.60511 756.26 15.1449C768.404 20.6847 777.851 28.3906 784.598 38.2628C791.345 48.1349 794.825 59.5696 795.038 72.5668H750.826ZM1020.55 118.909C1020.55 142.702 1016.04 162.943 1007.02 179.634C998.067 196.324 985.852 209.072 970.369 217.879C954.957 226.615 937.627 230.983 918.38 230.983C898.991 230.983 881.59 226.58 866.178 217.773C850.766 208.966 838.586 196.217 829.637 179.527C820.688 162.837 816.214 142.631 816.214 118.909C816.214 95.1165 820.688 74.875 829.637 58.1847C838.586 41.4943 850.766 28.7812 866.178 20.0455C881.59 11.2386 898.991 6.83522 918.38 6.83522C937.627 6.83522 954.957 11.2386 970.369 20.0455C985.852 28.7812 998.067 41.4943 1007.02 58.1847C1016.04 74.875 1020.55 95.1165 1020.55 118.909ZM973.778 118.909C973.778 103.497 971.469 90.5 966.853 79.9176C962.308 69.3352 955.88 61.3097 947.57 55.8409C939.261 50.3722 929.531 47.6378 918.38 47.6378C907.229 47.6378 897.499 50.3722 889.19 55.8409C880.88 61.3097 874.417 69.3352 869.8 79.9176C865.255 90.5 862.982 103.497 862.982 118.909C862.982 134.321 865.255 147.318 869.8 157.901C874.417 168.483 880.88 176.509 889.19 181.977C897.499 187.446 907.229 190.18 918.38 190.18C929.531 190.18 939.261 187.446 947.57 181.977C955.88 176.509 962.308 168.483 966.853 157.901C971.469 147.318 973.778 134.321 973.778 118.909ZM1045.72 228V9.81818H1190.18V47.8508H1091.85V99.8395H1180.59V137.872H1091.85V228H1045.72ZM1391 72.5668C1390.15 63.973 1386.49 57.2969 1380.03 52.5383C1373.56 47.7798 1364.79 45.4006 1353.71 45.4006C1346.18 45.4006 1339.83 46.4659 1334.64 48.5966C1329.46 50.6562 1325.48 53.5327 1322.71 57.2258C1320.01 60.919 1318.66 65.1094 1318.66 69.7969C1318.52 73.7031 1319.34 77.1122 1321.11 80.0241C1322.96 82.9361 1325.48 85.4574 1328.68 87.5881C1331.87 89.6477 1335.56 91.4588 1339.76 93.0213C1343.95 94.5128 1348.42 95.7912 1353.18 96.8565L1372.78 101.544C1382.3 103.675 1391.03 106.516 1398.99 110.067C1406.94 113.618 1413.83 117.986 1419.66 123.17C1425.48 128.355 1429.99 134.463 1433.19 141.494C1436.45 148.526 1438.12 156.587 1438.19 165.678C1438.12 179.03 1434.71 190.607 1427.97 200.408C1421.29 210.138 1411.63 217.702 1398.99 223.099C1386.42 228.426 1371.25 231.089 1353.5 231.089C1335.88 231.089 1320.54 228.391 1307.48 222.993C1294.48 217.595 1284.32 209.605 1277.01 199.023C1269.76 188.369 1265.96 175.195 1265.61 159.499H1310.25C1310.74 166.814 1312.84 172.922 1316.53 177.822C1320.3 182.652 1325.3 186.31 1331.55 188.795C1337.87 191.21 1345.01 192.418 1352.97 192.418C1360.78 192.418 1367.56 191.281 1373.31 189.009C1379.14 186.736 1383.65 183.575 1386.84 179.527C1390.04 175.479 1391.64 170.827 1391.64 165.571C1391.64 160.67 1390.18 156.551 1387.27 153.213C1384.43 149.875 1380.24 147.034 1374.7 144.69C1369.23 142.347 1362.52 140.216 1354.56 138.298L1330.81 132.332C1312.41 127.858 1297.89 120.862 1287.23 111.345C1276.58 101.828 1271.29 89.0085 1271.36 72.8864C1271.29 59.6761 1274.81 48.1349 1281.91 38.2628C1289.08 28.3906 1298.92 20.6847 1311.42 15.1449C1323.92 9.60511 1338.12 6.83522 1354.03 6.83522C1370.22 6.83522 1384.36 9.60511 1396.43 15.1449C1408.58 20.6847 1418.02 28.3906 1424.77 38.2628C1431.52 48.1349 1435 59.5696 1435.21 72.5668H1391ZM1485.9 230.77C1478.86 230.77 1472.83 228.284 1467.78 223.312C1462.81 218.27 1460.33 212.233 1460.33 205.202C1460.33 198.241 1462.81 192.276 1467.78 187.304C1472.83 182.332 1478.86 179.847 1485.9 179.847C1492.71 179.847 1498.68 182.332 1503.79 187.304C1508.91 192.276 1511.46 198.241 1511.46 205.202C1511.46 209.889 1510.26 214.186 1507.84 218.092C1505.5 221.928 1502.41 225.017 1498.57 227.361C1494.74 229.634 1490.51 230.77 1485.9 230.77ZM1578.18 228H1528.75L1604.07 9.81818H1663.52L1738.73 228H1689.3L1634.65 59.6761H1632.94L1578.18 228ZM1575.09 142.24H1691.85V178.249H1575.09V142.24ZM1781.67 230.77C1774.63 230.77 1768.6 228.284 1763.55 223.312C1758.58 218.27 1756.1 212.233 1756.1 205.202C1756.1 198.241 1758.58 192.276 1763.55 187.304C1768.6 182.332 1774.63 179.847 1781.67 179.847C1788.48 179.847 1794.45 182.332 1799.56 187.304C1804.68 192.276 1807.23 198.241 1807.23 205.202C1807.23 209.889 1806.03 214.186 1803.61 218.092C1801.27 221.928 1798.18 225.017 1794.34 227.361C1790.51 229.634 1786.28 230.77 1781.67 230.77ZM1954.71 72.5668C1953.85 63.973 1950.2 57.2969 1943.73 52.5383C1937.27 47.7798 1928.5 45.4006 1917.42 45.4006C1909.89 45.4006 1903.53 46.4659 1898.35 48.5966C1893.16 50.6562 1889.19 53.5327 1886.42 57.2258C1883.72 60.919 1882.37 65.1094 1882.37 69.7969C1882.23 73.7031 1883.04 77.1122 1884.82 80.0241C1886.67 82.9361 1889.19 85.4574 1892.38 87.5881C1895.58 89.6477 1899.27 91.4588 1903.46 93.0213C1907.65 94.5128 1912.13 95.7912 1916.89 96.8565L1936.49 101.544C1946 103.675 1954.74 106.516 1962.7 110.067C1970.65 113.618 1977.54 117.986 1983.36 123.17C1989.19 128.355 1993.7 134.463 1996.89 141.494C2000.16 148.526 2001.83 156.587 2001.9 165.678C2001.83 179.03 1998.42 190.607 1991.67 200.408C1985 210.138 1975.34 217.702 1962.7 223.099C1950.12 228.426 1934.96 231.089 1917.21 231.089C1899.59 231.089 1884.25 228.391 1871.18 222.993C1858.19 217.595 1848.03 209.605 1840.71 199.023C1833.47 188.369 1829.67 175.195 1829.31 159.499H1873.95C1874.45 166.814 1876.54 172.922 1880.24 177.822C1884 182.652 1889.01 186.31 1895.26 188.795C1901.58 191.21 1908.72 192.418 1916.67 192.418C1924.49 192.418 1931.27 191.281 1937.02 189.009C1942.84 186.736 1947.35 183.575 1950.55 179.527C1953.75 175.479 1955.34 170.827 1955.34 165.571C1955.34 160.67 1953.89 156.551 1950.98 153.213C1948.14 149.875 1943.95 147.034 1938.41 144.69C1932.94 142.347 1926.23 140.216 1918.27 138.298L1894.51 132.332C1876.12 127.858 1861.59 120.862 1850.94 111.345C1840.29 101.828 1835 89.0085 1835.07 72.8864C1835 59.6761 1838.51 48.1349 1845.61 38.2628C1852.79 28.3906 1862.62 20.6847 1875.12 15.1449C1887.62 9.60511 1901.83 6.83522 1917.74 6.83522C1933.93 6.83522 1948.06 9.60511 1960.14 15.1449C1972.28 20.6847 1981.73 28.3906 1988.48 38.2628C1995.22 48.1349 1998.7 59.5696 1998.92 72.5668H1954.71Z" fill="url(#paint0_linear_27_78)"/>
<defs>
<linearGradient id="paint0_linear_27_78" x1="10" y1="119" x2="2014" y2="119" gradientUnits="userSpaceOnUse">
<stop stop-color="#211965"/>
<stop offset="1" stop-color="#1941F7"/>
</linearGradient>
</defs>
</svg>
